<?xml version="1.0" encoding="UTF-8" standalone="no"?>
<svg
   xmlns:dc="http://purl.org/dc/elements/1.1/"
   xmlns:cc="http://creativecommons.org/ns#"
   xmlns:rdf="http://www.w3.org/1999/02/22-rdf-syntax-ns#"
   xmlns:svg="http://www.w3.org/2000/svg"
   xmlns="http://www.w3.org/2000/svg"
   xmlns:sodipodi="http://sodipodi.sourceforge.net/DTD/sodipodi-0.dtd"
   xmlns:inkscape="http://www.inkscape.org/namespaces/inkscape"
   width="79.348061mm"
   height="52.323711mm"
   viewBox="0 0 79.348061 52.323711"
   version="1.1"
   id="svg8"
   sodipodi:docname="logo2.svg"
   inkscape:version="0.92.4 (unknown)">
  <sodipodi:namedview
     pagecolor="#ffffff"
     bordercolor="#666666"
     borderopacity="1"
     objecttolerance="10"
     gridtolerance="10"
     guidetolerance="10"
     inkscape:pageopacity="0"
     inkscape:pageshadow="2"
     inkscape:window-width="1920"
     inkscape:window-height="1015"
     id="namedview18"
     showgrid="false"
     inkscape:zoom="3.0557384"
     inkscape:cx="116.83559"
     inkscape:cy="145.79"
     inkscape:window-x="0"
     inkscape:window-y="0"
     inkscape:window-maximized="1"
     inkscape:current-layer="layer1" />
  <defs
     id="defs2" />
  <metadata
     id="metadata5">
    <rdf:RDF>
      <cc:Work
         rdf:about="">
        <dc:format>image/svg+xml</dc:format>
        <dc:type
           rdf:resource="http://purl.org/dc/dcmitype/StillImage" />
        <dc:title />
      </cc:Work>
    </rdf:RDF>
  </metadata>
  <g
     id="layer1"
     transform="translate(-56.004548,-78.089033)">
    <ellipse
       id="path46"
       cx="103.05602"
       cy="75.17009"
       rx="13.110476"
       ry="25.663059"
       style="fill:#ffffff;stroke-width:0.26458332"
       transform="rotate(20)" />
    <ellipse
       id="path46-7"
       cx="76.760887"
       cy="140.61809"
       rx="13.110476"
       ry="25.663059"
       style="fill:#ffffff;stroke-width:0.26458332"
       transform="rotate(-20)" />
    <ellipse
       id="path63"
       cx="95.72789"
       cy="98.119751"
       rx="33.917351"
       ry="20.030718"
       style="fill:#ffffff;stroke-width:0.28321978" />
    <path
       style="fill:#2a8bca;fill-opacity:1;stroke-width:0.38099998"
       d="m 88.586985,84.283811 a 10.8,10.8 0 0 0 -10.80046,10.799716 10.8,10.8 0 0 0 10.80046,10.800453 10.8,10.8 0 0 0 7.096867,-2.67668 10.8,10.8 0 0 0 7.104308,2.67668 10.8,10.8 0 0 0 10.80047,-10.800453 10.8,10.8 0 0 0 -10.80047,-10.799716 10.8,10.8 0 0 0 -7.09612,2.676675 10.8,10.8 0 0 0 -7.105055,-2.676675 z"
       id="path86-5" />
    <path
       style="fill:#d45500;stroke-width:0.20319998"
       d="m 90.779538,103.10054 c 3.088341,-1.76208 6.07605,-1.41088 9.013296,0 0,0 -0.938074,9.65674 -4.470397,12.11871 -0.01982,0.0138 -0.05266,0.0138 -0.0725,0 -3.532325,-2.46197 -4.4704,-12.11871 -4.4704,-12.11871 z"
       id="rect108" />
    <ellipse
       style="fill:#ffffff;stroke-width:0.38099998"
       id="path12"
       cx="87.290375"
       cy="95.738815"
       rx="2.7113581"
       ry="2.9121993" />
    <ellipse
       ry="2.9121993"
       rx="2.7113581"
       cy="95.738815"
       cx="104.13249"
       id="ellipse14"
       style="fill:#ffffff;stroke-width:0.38099998" />
    <circle
       style="fill:#2a8bca;fill-opacity:1;stroke-width:0.38099998"
       id="path16"
       cx="120.13837"
       cy="98.811363"
       r="1.872" />
    <circle
       r="1.872"
       cy="104.98908"
       cx="120.10285"
       id="circle20"
       style="fill:#2a8bca;fill-opacity:1;stroke-width:0.38099998" />
    <circle
       r="1.872"
       cy="116.99624"
       cx="-101.88247"
       id="circle22"
       style="fill:#2a8bca;fill-opacity:1;stroke-width:0.38099998"
       transform="rotate(-90)" />
    <circle
       style="fill:#2a8bca;fill-opacity:1;stroke-width:0.38099998"
       id="circle24"
       cx="-101.91795"
       cy="123.17397"
       r="1.872"
       transform="rotate(-90)" />
    <path
       style="fill:#2a8bca;fill-opacity:1;stroke-width:0.51199996"
       d="m 257.58008,365.70703 v 14.31445 h -14.31446 v 14.88672 h 14.31446 v 14.3125 h 14.88476 v -14.3125 h 14.31446 v -14.88672 h -14.31446 v -14.31445 z"
       transform="scale(0.26458333)"
       id="rect26" />
  </g>
</svg>
